<svg width="114" height="126" viewBox="0 0 114 126" fill="none" xmlns="http://www.w3.org/2000/svg">

  <path class="coffeePath" d="M110.987 51.2126C110.988 51.0046 110.964 50.7976 110.899 50.5936C110.809 50.1786 110.601 49.7866 110.341 49.4266C110.074 49.0646 109.722 48.7586 109.327 48.4906C109.117 48.3736 108.902 48.2616 108.682 48.1566C108.428 48.0556 108.122 47.9736 107.834 47.9076C107.658 47.8666 107.606 47.8656 107.526 47.8556L107.296 47.8276L107.179 47.8136L107.151 47.8106L106.953 47.8016L106.894 47.8006L106.661 47.7946L105.726 47.7766C103.232 47.7426 100.724 47.8216 98.2281 47.8816C95.5024 47.9426 92.7743 48.0036 90.044 48.0646L89.0215 48.0886L88.9303 48.0906C88.9417 48.0416 88.9531 47.9996 88.9622 47.9476C89.3942 45.7076 89.7761 43.4486 90.125 41.1736C90.1763 41.1696 90.2219 41.1726 90.2732 41.1686C90.5684 41.1646 90.8489 41.0966 91.1293 41.0186C92.2477 40.7216 93.2258 40.0116 93.773 39.0806C94.0249 38.6736 94.1275 38.1966 94.1195 37.9526C94.1002 37.6896 94.0511 37.5086 93.985 37.4196C93.8459 37.2406 93.6613 37.4436 93.4789 38.0856C92.9567 39.3866 91.4804 40.3226 90.0053 40.2536C89.8001 39.8846 89.4193 39.5986 88.9211 39.5406C88.8767 39.5356 88.8311 39.5316 88.7866 39.5306L88.6738 39.5266C81.1349 39.2816 73.4924 39.3106 65.8578 39.3806C60.3014 39.3176 54.6151 39.3216 48.8866 39.3716C40.6136 39.4436 32.2745 39.6016 24.1931 39.7536C20.1518 39.8236 16.1743 39.8946 12.304 39.9636C10.3683 39.9906 8.4588 40.0186 6.58122 40.0446C6.11154 40.0496 5.64414 40.0556 5.17902 40.0616L4.57368 40.0126C4.34112 39.9926 4.26018 39.9226 4.0926 39.8936C3.45762 39.6986 2.83974 39.2666 2.4795 38.7356C2.35068 38.5476 2.23212 38.3556 2.17626 38.1406C2.0748 37.9376 2.06568 37.7156 2.03718 37.4976C1.99044 37.0256 2.01666 36.4116 2.00298 35.8746L1.97904 32.5446L1.95282 25.9456C1.99386 25.6886 1.98702 25.3396 2.08734 25.1946L2.18652 24.9096C2.23782 24.8116 2.3085 24.7126 2.36664 24.6136C2.59692 24.2066 2.9868 23.8906 3.3972 23.6206C3.84294 23.3996 4.32174 23.1966 4.84386 23.1796C5.0787 23.1456 5.39448 23.1406 5.71938 23.1446L6.67128 23.1426L14.2888 23.1276C24.4496 23.1166 34.6264 23.1056 44.7997 23.0936C54.9731 23.0596 65.143 23.0266 75.2913 22.9926L82.8974 22.9396L86.697 22.9076L88.5951 22.8896L89.5447 22.8806C89.775 22.8646 90.1512 22.9186 90.4476 22.9346C91.4975 23.0916 92.5349 23.7846 93.0217 24.6826C93.1448 24.9076 93.2167 25.1556 93.2999 25.3946C93.3215 25.6516 93.3831 25.8806 93.382 26.1636L93.4082 27.8256C93.4481 30.0406 93.4891 32.2546 93.5302 34.4656C93.5929 37.5696 94.6006 38.6506 94.7887 35.2426C94.8822 33.2466 94.9757 31.2456 95.0703 29.2396L95.1763 26.2226C95.1991 26.0136 95.1547 25.6006 95.1227 25.2746C95.1079 24.9276 94.9449 24.6026 94.8457 24.2676C94.7203 23.9386 94.506 23.6396 94.3247 23.3306C94.0922 23.0516 93.8494 22.7696 93.5746 22.5186C92.9738 22.0346 92.3731 21.6466 91.5067 21.3916C91.2866 21.3286 91.0621 21.2726 90.8398 21.2236C90.6049 21.1696 90.5285 21.1826 90.3644 21.1596L89.9357 21.1146L89.6667 21.1036L89.5584 21.1026L89.3429 21.0996L85.8762 21.0566C83.562 21.0406 81.2444 21.0246 78.9222 21.0086C69.6369 20.9736 60.3026 21.0526 51.0104 21.1126C40.8713 21.1736 30.7093 21.2346 20.5508 21.2956C15.4709 21.3316 10.3922 21.3676 5.3181 21.4036C3.73122 21.3466 2.01552 22.0866 1.04652 23.2426C0.76722 23.5126 0.6213 23.8646 0.41838 24.1776C0.27018 24.5226 0.11058 24.9956 0.06726 25.2936L0.0250793 25.7096L0.013679 25.8136L0.00911934 25.8656L0.00113937 26.0226L0.0034203 26.2306L0.013679 27.0636L0.10374 33.7286L0.14592 36.4986L0.157321 37.1896C0.151621 37.4006 0.20862 37.7456 0.24168 38.0146C0.3477 38.5836 0.58824 39.1336 0.93594 39.6206C1.28364 40.1066 1.7442 40.5246 2.27202 40.8596C2.52738 41.0346 2.83632 41.1436 3.11904 41.2816C3.41202 41.4076 3.78822 41.4796 4.12338 41.5616C4.45626 41.6286 4.66374 41.6136 4.93962 41.6446L5.03652 41.6516L5.18016 41.6586H5.22918L5.42412 41.6556L5.53128 41.6546C7.71324 57.5046 9.90204 72.8886 11.0044 89.1216C11.0124 89.2406 11.0284 89.3446 11.0477 89.4436C9.18612 89.4586 7.32336 89.4726 5.46288 89.4876C4.8678 89.4976 4.36278 89.4886 3.6936 89.5126C2.85114 89.5266 2.03034 89.8386 1.39194 90.3006C1.05906 90.5246 0.800279 90.8216 0.573419 91.1246C0.471959 91.2856 0.37278 91.4436 0.28386 91.6136C0.2052 91.8136 0.136801 92.0196 0.0820806 92.2256C0.0262206 92.4386 0.044459 92.5006 0.021659 92.6456L0.0125396 92.7396L0.00797997 92.7866L0 92.9386L0.00227875 93.1266L0.0125396 93.8816L0.0342008 95.3906C0.0604208 95.9186 -0.00569999 96.2996 0.1425 97.1036C0.3249 97.8086 0.7809 98.4436 1.39764 98.9016C1.70316 99.1426 2.0577 99.3046 2.44074 99.4556C2.66076 99.5206 2.88876 99.5766 3.11334 99.6226C3.31968 99.6586 3.41658 99.6506 3.57276 99.6676C18.8704 99.4486 33.7486 99.2356 48.6221 99.0226C56.0424 98.9396 63.4638 98.8896 70.9422 98.9076C74.6791 98.9326 78.432 98.9596 82.2054 98.9856C84.0921 99.0136 85.9834 99.0426 87.8815 99.0696L90.7326 99.1246C91.1726 99.1556 91.8202 99.1016 92.324 98.9266C92.8393 98.7246 93.3079 98.4246 93.6521 98.0216C93.8072 97.8406 93.9018 97.6466 93.993 97.4816C94.0546 97.2886 94.0933 97.1146 94.1127 96.9686C94.115 96.7106 94.0466 96.5606 93.9839 96.4766C93.8277 96.3026 93.6932 96.5176 93.4526 97.0526C93.1642 97.6156 92.5885 98.0526 91.9558 98.2146C91.7905 98.2366 91.6332 98.2736 91.4725 98.2836C91.298 98.2736 91.1692 98.2856 90.9709 98.2676L89.783 98.1686C88.1904 98.0416 86.5602 97.9296 84.8992 97.8316C81.5784 97.6356 78.131 97.4956 74.5959 97.3996C67.5256 97.2086 60.0997 97.1946 52.6144 97.2666C37.6417 97.4126 22.4295 97.8996 9.32634 97.9956L5.89494 98.0196L4.1781 98.0296L3.96378 98.0316H3.88398L3.8304 98.0276L3.4029 97.9926C3.249 97.9316 3.11106 97.9186 2.92182 97.8126C2.57412 97.6386 2.28912 97.3676 2.11926 97.0436C2.0634 96.8736 1.98702 96.7086 1.98474 96.5276C1.94712 96.3806 1.9722 96.0536 1.96194 95.8256L1.95282 92.8756L1.99614 92.5046C2.03148 92.4386 2.05884 92.3726 2.07936 92.3026C2.15688 92.1606 2.2458 91.9766 2.3883 91.8506C2.6505 91.5766 3.0096 91.3576 3.41544 91.2836C3.75402 91.2176 4.40382 91.2346 4.96584 91.2306L6.68838 91.2256L13.5808 91.2106C22.7749 91.1986 31.9838 91.1886 41.1893 91.1766C46.96 91.1556 52.7204 91.1346 58.4854 91.1136L59.0338 91.1896C59.3427 91.2136 59.6117 91.2076 59.9024 91.2166L60.3299 91.2256L60.4382 91.2276L60.5716 91.2306L60.6252 91.2276L60.8395 91.2196L61.6945 91.1846C62.0616 91.1776 62.4834 91.1406 62.9098 91.0976C64.8649 91.0906 66.8268 91.0826 68.7796 91.0766C73.3704 91.0356 77.9566 90.9956 82.5349 90.9546L89.3977 90.8676L91.0826 90.8456C91.6959 90.8546 92.0892 90.9976 92.5349 91.2646C92.9522 91.5276 93.2714 91.9186 93.4048 92.3616C93.545 92.7866 93.5131 93.2996 93.5313 93.8006C93.594 96.6096 94.6018 97.5866 94.7899 94.5036L94.8685 93.1496C94.8925 92.9666 94.8708 92.5986 94.8355 92.2796C94.7511 91.9646 94.677 91.6326 94.49 91.3436C94.1743 90.7426 93.6293 90.2356 92.967 89.9006C92.6695 89.7226 92.2112 89.5896 91.7746 89.4956L91.3756 89.4436L91.2798 89.4316L91.2308 89.4256L91.2068 89.4226L91.0472 89.4156L90.8534 89.4086C88.7809 89.3526 86.7016 89.2966 84.6199 89.2406H84.6165C85.5638 86.6976 85.6721 84.0146 85.8329 81.3586C86.0233 78.2216 86.282 75.0756 86.3618 71.9346C86.4952 66.8076 86.1088 61.9186 87.397 56.8946C87.6694 56.9536 87.9282 56.9906 88.0775 56.9796L88.2873 56.9866L88.3979 56.9906L88.4241 56.9896L88.4765 56.9866L88.5814 56.9816L88.9987 56.9586L90.6653 56.8676C92.8838 56.7466 95.0874 56.6286 97.291 56.5446C99.4946 56.4606 101.697 56.4116 103.918 56.4286C105.041 56.4256 106.112 56.4896 107.292 56.4806C108.551 56.4206 109.722 55.6316 110.091 54.3986C110.189 53.9546 109.651 53.7766 109.449 54.1176C109.016 54.8676 108.256 55.1806 107.621 55.2326C107.453 55.2146 107.312 55.2466 107.162 55.1956C107.082 55.1786 107.036 55.1706 106.939 55.1566L106.558 55.1006C106.048 55.0286 105.53 54.9706 105.005 54.9226C102.906 54.7316 100.702 54.7176 98.4778 54.7896C96.2559 54.8616 94.0147 55.0196 91.8441 55.1716C90.7577 55.2436 89.6872 55.3146 88.6498 55.3836L88.456 55.3956L88.407 55.3976H88.4002C88.3762 55.3966 88.5826 55.4056 88.4925 55.4016H88.48L88.456 55.4006L88.358 55.3976L87.9715 55.3846C87.8427 55.3336 87.7526 55.3626 87.5851 55.2776C87.2704 55.1736 87.0116 54.9606 86.8349 54.7176C86.7529 54.6006 86.697 54.4856 86.6525 54.3656C86.7187 54.3116 86.7734 54.2456 86.8042 54.1546C87.1462 53.1186 87.3217 52.0706 87.4015 51.0156C87.422 50.7466 87.3491 50.4926 87.2111 50.2726C87.5349 50.0446 87.9385 49.9046 88.3705 49.8976C91.0974 49.8856 93.8277 49.8736 96.558 49.8606C99.2906 49.8466 102.023 49.8206 104.75 49.7596L106.794 49.7066C107.448 49.6886 107.936 49.7986 108.408 50.1106C108.864 50.4136 109.19 50.8806 109.282 51.3976C109.367 51.9356 109.372 52.5716 109.427 53.1526C109.491 53.9866 110.499 54.2776 110.687 53.3616C110.798 52.8256 110.891 52.2886 110.969 51.7486C110.995 51.6446 110.995 51.4196 110.987 51.2126Z" fill="black"/>
  <path class="coffeePath" d="M69.6187 55.5166L69.6962 56.6466L69.7201 56.9296L69.7235 56.9646L69.7247 56.9736V56.9776C69.7281 56.9176 69.7167 57.1186 69.7327 56.8446V56.8626L69.7304 56.9336L69.7281 57.0756C69.7235 57.1536 69.7281 57.3016 69.7178 57.3226C69.7064 57.3336 69.7042 57.3436 69.7099 57.3606C69.7099 57.6276 69.3998 58.0106 69.0076 58.1736C68.9119 58.2406 68.7933 58.2336 68.6804 58.2776C68.5471 58.3096 68.286 58.3186 68.0979 58.3396C67.6852 58.3736 67.2782 58.4076 66.8781 58.4406C66.0755 58.5026 65.2935 58.5506 64.5422 58.5746C64.4533 58.5776 64.3644 58.5766 64.2755 58.5796C64.0156 58.1836 63.5174 57.9326 62.9656 57.9796C61.9351 58.0626 60.9011 58.1346 59.8728 58.2666L59.5171 58.3126C59.2355 58.3486 59.0041 58.4876 58.8525 58.6766C58.645 58.6786 58.441 58.6866 58.2335 58.6876L55.07 58.7056L54.2788 58.7086C54.1876 58.6956 53.7145 58.6916 53.637 58.6296C53.3406 58.5756 52.9393 58.3526 52.7022 58.0986C52.4343 57.8446 52.269 57.5116 52.2337 57.1656C52.1995 57.0176 52.204 56.7606 52.1995 56.5326L52.1869 55.8386L52.1094 53.0666C52.0501 51.4816 51.9498 49.8996 51.8119 48.3226C55.5818 48.1986 59.3655 48.1196 63.1286 47.9006C65.7997 47.7446 68.4057 47.5266 71.0049 47.3556C69.6768 49.7466 69.4591 52.6066 69.6187 55.5166Z" fill="black"/>
  <path class="coffeePath" d="M62.7422 63.3076C62.2896 62.7796 61.7948 62.4616 61.2773 62.2926C61.0675 61.6246 60.8258 60.9746 60.7346 60.3796C61.2636 60.3576 61.7926 60.3326 62.3204 60.3056C62.3671 61.3106 62.4777 62.3126 62.7422 63.3076Z" fill="black"/>
  <path class="coffeePath" d="M48.5845 46.4056L48.5218 46.4016L48.1536 46.3776C47.8298 46.3066 47.4628 46.2146 47.1641 45.9726C46.8779 45.7496 46.6135 45.4706 46.504 45.1326C46.4094 44.9726 46.4254 44.7906 46.3741 44.6156L46.3319 43.9696C46.2737 43.1246 46.2019 42.2816 46.1153 41.4396C56.2829 41.4256 66.4552 41.4066 76.5909 41.3116C76.3184 41.7846 76.0825 42.2706 75.9012 42.7786C75.7895 43.0916 75.6937 43.4086 75.6116 43.7326L75.4999 44.2206L75.452 44.4676L75.4292 44.5916L75.4258 44.6076L75.4247 44.6136C75.4247 44.6116 75.4384 44.3766 75.4315 44.4896L75.4224 44.5206L75.4042 44.5816L75.3369 44.8266L75.305 44.9506L75.2651 44.9556C75.2126 44.9616 75.2354 44.9536 75.1591 45.0186C75.077 45.1236 74.9561 45.2066 74.841 45.2726C74.7259 45.3496 74.5936 45.3786 74.4648 45.4286C74.3759 45.4256 74.3611 45.4446 74.2151 45.4596L73.6144 45.4826C70.4064 45.6266 67.146 46.1146 64.3382 46.2106C60.4189 46.3456 56.4699 46.3286 52.5244 46.3576L49.5661 46.3906L48.8273 46.4036L48.6427 46.4066C48.6427 46.4066 48.5936 46.4056 48.5845 46.4056Z" fill="black"/>
  <path class="coffeePath" d="M40.7322 44.4876L40.7231 44.5186L40.706 44.5796L40.6387 44.8246L40.6068 44.9486L40.5658 44.9536C40.5145 44.9606 40.5361 44.9516 40.4597 45.0166C40.3777 45.1216 40.2568 45.2046 40.1417 45.2696C40.0277 45.3466 39.8954 45.3756 39.7666 45.4256C39.6777 45.4226 39.6629 45.4416 39.5158 45.4566L38.915 45.4796C35.7071 45.6236 32.4467 46.1116 29.6389 46.2076C25.7195 46.3426 21.7706 46.3256 17.8262 46.3546L14.8679 46.3876L14.1292 46.4006L13.9445 46.4036C13.9445 46.4056 13.8966 46.4056 13.8863 46.4056L13.8236 46.4016L13.4554 46.3776C13.1328 46.3066 12.7657 46.2146 12.4659 45.9726C12.1798 45.7496 11.9153 45.4706 11.8058 45.1326C11.7112 44.9726 11.7272 44.7906 11.6759 44.6156L11.6337 43.9696C11.5801 43.1806 11.5106 42.3936 11.4308 41.6076C12.2539 41.5946 13.0838 41.5806 13.8863 41.5726C23.1637 41.4806 32.4843 41.4596 41.8163 41.4456C41.5781 41.8776 41.3649 42.3186 41.2007 42.7786C41.089 43.0916 40.9933 43.4086 40.9123 43.7326L40.8006 44.2206L40.7527 44.4676L40.7299 44.5916L40.7276 44.6076L40.7265 44.6156V44.6196C40.7242 44.6466 40.7402 44.3676 40.7322 44.4876Z" fill="black"/>
  <path class="coffeePath" d="M34.9182 55.5166L34.9969 56.6466L35.0208 56.9296L35.0242 56.9656V56.9746V56.9786C35.0276 56.9186 35.0162 57.1196 35.0322 56.8446V56.8626L35.0311 56.9336L35.0276 57.0756C35.0242 57.1536 35.0288 57.3006 35.0174 57.3226C35.0071 57.3326 35.0048 57.3436 35.0105 57.3596C35.0105 57.6266 34.7016 58.0096 34.3094 58.1736C34.2148 58.2406 34.0951 58.2326 33.9823 58.2766C33.8477 58.3086 33.5878 58.3176 33.3986 58.3386C32.987 58.3726 32.5789 58.4066 32.1788 58.4396C31.3751 58.5016 30.5942 58.5496 29.8441 58.5736C29.7551 58.5766 29.6662 58.5756 29.5773 58.5786C29.3174 58.1826 28.8192 57.9316 28.2674 57.9786C27.2369 58.0616 26.204 58.1336 25.1746 58.2656L24.8189 58.3116C24.5374 58.3476 24.3048 58.4866 24.1543 58.6756C23.9468 58.6776 23.7416 58.6856 23.5353 58.6866L20.3718 58.7036L19.5806 58.7066C19.4894 58.6936 19.0163 58.6896 18.9388 58.6286C18.6424 58.5736 18.2411 58.3506 18.004 58.0976C17.7361 57.8436 17.572 57.5106 17.5355 57.1646C17.5013 57.0176 17.5058 56.7596 17.5013 56.5326L17.4887 55.8386L17.4112 53.0666C17.3519 51.4806 17.2516 49.8996 17.1137 48.3226C20.8837 48.1986 24.6685 48.1196 28.4305 47.9006C31.1003 47.7446 33.7064 47.5266 36.3044 47.3556C34.9763 49.7466 34.7597 52.6066 34.9182 55.5166Z" fill="black"/>
  <path class="coffeePath" d="M28.0463 63.3086C27.5926 62.7796 27.0978 62.4616 26.5802 62.2916C26.3705 61.6246 26.1288 60.9746 26.0387 60.3796C26.5666 60.3576 27.0955 60.3326 27.6233 60.3056C27.6712 61.3106 27.7807 62.3126 28.0463 63.3086Z" fill="black"/>
  <path class="coffeePath" d="M72.1586 53.5946C72.1495 53.4746 72.1346 53.3476 72.1278 53.2306C72.1073 52.7106 72.0879 52.1896 72.0674 51.6686C76.2238 51.5986 80.4042 51.6426 84.5595 51.4766L84.5515 51.6076L84.5549 51.6636L84.5652 51.8876L84.6553 53.6786C84.6564 53.7426 84.6632 53.8316 84.6724 53.9276C80.9776 52.3606 76.2535 53.1776 72.1586 53.5946Z" fill="black"/>
  <path class="coffeePath" d="M85.2891 49.5356C85.2868 49.5386 85.2845 49.5426 85.2811 49.5456C83.5324 49.4736 81.7699 49.5566 80.0166 49.6256C77.2019 49.7356 74.3759 49.8096 71.5612 49.9606C71.6125 49.0796 71.6855 48.1936 71.8052 47.2996C72.1221 47.2806 72.4436 47.2516 72.7605 47.2356C73.5471 47.1626 74.3497 47.2486 75.2012 46.9946C76.0175 46.7376 76.6741 46.1636 76.958 45.4366C77.2373 44.7006 77.1301 43.9856 77.2168 43.2836C77.2646 42.6276 77.3376 41.9666 77.4299 41.3036C80.8659 41.2696 84.2962 41.2266 87.7219 41.1706C87.7686 41.1706 87.8153 41.1716 87.8632 41.1726L88.277 41.1796C88.106 43.2356 87.9362 45.2806 87.7663 47.3206C87.7424 47.6376 87.7435 47.9206 87.7629 48.1726C86.7677 48.3286 85.8637 48.8306 85.2891 49.5356Z" fill="black"/>
  <path class="coffeePath" d="M84.5515 70.8126C84.1844 76.9316 83.1584 83.0806 83.1459 89.2166C79.4648 89.1476 75.7701 89.1056 72.0651 89.0906C70.9057 89.0856 69.7429 89.0966 68.5813 89.0956C68.7158 89.0056 68.8628 88.9276 68.9917 88.8336C70.5147 87.7396 71.7083 86.4016 72.6465 84.9736C74.5024 82.0976 75.4931 78.9116 75.9742 75.5436C76.038 75.1686 75.4885 75.0416 75.3118 75.3336C74.5594 76.6896 73.9712 77.9596 73.4012 79.3156C72.7936 80.6556 72.1905 82.0196 71.4278 83.3396C70.6675 84.6546 69.7384 85.9236 68.5756 86.9626C67.472 87.9576 66.1417 88.7146 64.7634 89.0996C62.3842 89.1056 60.0085 89.1046 57.627 89.1206C55.7734 88.6096 54.085 87.6126 52.7011 86.3666C49.6892 83.5536 48.0932 79.7106 47.5904 75.8076C47.497 75.1276 46.4767 74.8546 46.3239 75.6616C45.5168 79.4596 47.0968 83.6296 50.0551 86.7006C50.9318 87.6146 51.9464 88.4486 53.0727 89.1516C50.9831 89.1676 48.8923 89.1806 46.8061 89.1956C37.6325 89.2566 28.4362 89.3176 19.2443 89.3786C16.7432 89.3986 14.2432 89.4176 11.7431 89.4376C12.7042 75.6856 9.58854 57.3466 7.36896 41.6836C8.27184 41.6626 9.17472 41.6426 10.0582 41.6266C9.89292 42.2726 9.76296 42.9226 9.6786 43.5766L9.61134 44.1646L9.58512 44.4596L9.57372 44.6066L9.58056 44.8376C9.58056 45.4776 9.81768 46.1166 10.1973 46.6726C10.5997 47.2126 11.1378 47.6916 11.807 47.9826C12.0977 48.1406 12.5503 48.2676 12.9857 48.3506C13.2525 48.4056 13.2673 48.3836 13.4087 48.3996L13.5774 48.4106L13.6618 48.4156L13.8738 48.4256L13.916 48.4246L15.5678 48.3706C15.2977 49.7036 15.1768 51.0506 15.1472 52.4046C15.1278 53.2496 15.1403 54.0966 15.1666 54.9436L15.2144 56.2146L15.2407 56.8496C15.2407 56.9316 15.2566 57.1006 15.2806 57.2766C15.3056 57.4446 15.3239 57.6136 15.3683 57.7766C15.805 59.2326 17.1023 60.3546 18.9286 60.5646L19.323 60.5886L19.5202 60.5966L19.5692 60.5956L19.6673 60.5936L19.8645 60.5876L20.6545 60.5656L22.2346 60.5196C22.8969 60.4996 23.5581 60.4746 24.2193 60.4516C24.4758 61.5246 24.8064 62.5736 24.9307 63.6276L24.9352 63.6706C24.9478 63.7756 25.0538 63.8526 25.1735 63.8416C26.1493 63.7536 27.1297 63.7876 28.1341 64.0826C28.264 64.1206 28.3028 63.7066 28.2173 63.5336C28.516 63.6606 29.1794 63.6716 29.3288 63.4736C30.1484 62.3946 30.0173 61.2826 29.8828 60.1766C31.1733 60.0966 32.4638 60.0136 33.736 59.9236C33.9264 59.9176 34.2319 59.8706 34.4827 59.8316C34.7415 59.7846 34.9877 59.6836 35.2271 59.5966C35.6797 59.3676 36.1015 59.0896 36.3785 58.7116C36.6829 58.3626 36.8516 57.9266 36.9417 57.4726C36.944 57.2706 36.9668 57.1316 36.9554 56.8786L36.9178 56.3186C36.7274 53.3416 36.6943 50.3646 37.1036 47.2996C37.4216 47.2806 37.742 47.2516 38.06 47.2356C38.8478 47.1626 39.6492 47.2486 40.5008 46.9946C41.3159 46.7376 41.9737 46.1636 42.2575 45.4366C42.5368 44.7006 42.4297 43.9856 42.5163 43.2836C42.5608 42.6746 42.6326 42.0596 42.7135 41.4436C43.4089 41.4426 44.1055 41.4416 44.802 41.4406C44.6116 42.1486 44.4691 42.8606 44.3768 43.5766L44.3095 44.1646L44.2833 44.4586L44.2719 44.6056L44.2787 44.8366C44.2787 45.4766 44.5159 46.1156 44.8955 46.6716C45.2979 47.2116 45.836 47.6906 46.5052 47.9816C46.7959 48.1396 47.2484 48.2676 47.6851 48.3496C47.9518 48.4046 47.9655 48.3826 48.1069 48.3986L48.2756 48.4096L48.3599 48.4146L48.5731 48.4246L48.6153 48.4236L50.266 48.3696C49.9958 49.7026 49.875 51.0496 49.8454 52.4036C49.826 53.2486 49.8385 54.0956 49.8647 54.9426L49.9126 56.2136L49.9388 56.8486C49.9388 56.9296 49.9548 57.0996 49.9787 57.2756C50.0038 57.4436 50.0221 57.6126 50.0665 57.7756C50.5043 59.2316 51.8005 60.3526 53.6279 60.5626L54.0223 60.5866L54.2195 60.5946L54.2686 60.5936L54.3677 60.5916L54.565 60.5856L55.355 60.5636L56.935 60.5176C57.5962 60.4976 58.2574 60.4726 58.9186 60.4496C59.1751 61.5226 59.5057 62.5716 59.6288 63.6246L59.6345 63.6676C59.6471 63.7726 59.7531 63.8496 59.8728 63.8386C60.8486 63.7506 61.829 63.7846 62.8334 64.0796C62.9633 64.1176 63.001 63.7036 62.9166 63.5316C63.2164 63.6576 63.8788 63.6686 64.0281 63.4706C64.8478 62.3916 64.7167 61.2796 64.5821 60.1746C65.8738 60.0936 67.1642 60.0106 68.4376 59.9216C68.6269 59.9156 68.9335 59.8676 69.1843 59.8296C69.4431 59.7816 69.6893 59.6816 69.9276 59.5946C70.3802 59.3656 70.8031 59.0876 71.0801 58.7096C71.3845 58.3606 71.5532 57.9246 71.6433 57.4716C71.6467 57.2696 71.6672 57.1306 71.657 56.8776L71.6194 56.3176C71.5966 55.9596 71.5852 55.6006 71.5669 55.2416C76.038 54.8586 80.3746 54.4056 84.9038 54.9076C84.9973 55.1326 85.1033 55.3506 85.2572 55.5466C85.6026 56.0106 86.0791 56.3816 86.6229 56.6346C83.5415 60.5326 84.816 66.4296 84.5515 70.8126Z" fill="black"/>
  <path class="coffeePath" d="M75.167 74.2356C72.8448 73.4626 70.4474 73.6536 68.0728 73.7756C65.4827 73.9086 62.879 73.9836 60.2934 74.2136C55.9831 74.5956 51.9144 75.4356 47.5984 74.7126C47.3544 74.6716 47.2849 75.1576 47.4776 75.3016C50.9044 77.8546 55.7961 76.0976 59.4966 75.9046C64.6619 75.6346 69.9014 75.9706 75.053 75.3416C75.5067 75.2856 75.6629 74.4006 75.167 74.2356Z" fill="black"/>
  <path class="coffeePath" d="M57.2372 70.2566L57.3284 70.4946L57.4275 70.7476C57.4834 70.8796 57.545 71.0096 57.6099 71.1346C58.1378 72.0776 58.9301 72.5476 59.7098 72.8766C59.9743 73.0026 60.2673 73.0626 60.5557 73.1226C60.6982 73.1626 60.8475 73.1626 60.9946 73.1726L61.2146 73.1836L61.3252 73.1886L61.3799 73.1916L61.4061 73.1926L61.5065 73.1876C61.7584 73.1446 61.9112 73.1636 62.2429 73.0726C62.561 72.9966 62.8619 72.8986 63.0968 72.7626C64.1205 72.2726 64.7885 71.2946 64.8364 70.2846C64.841 70.2086 64.8501 70.1896 64.8501 70.0656L64.8364 69.9146C64.8227 69.8066 64.8273 69.7266 64.7999 69.5966C64.7566 69.3456 64.6962 69.1096 64.6152 68.8986C64.4545 68.4666 64.2379 68.0596 63.9643 67.6936C63.408 66.9676 62.7274 66.3296 61.796 65.9596C61.7037 65.9336 61.5988 65.9576 61.5167 66.0336C61.4814 66.0536 61.4609 66.1076 61.4449 66.1546C61.4335 66.0846 61.3776 65.9266 61.3138 65.8986C60.2433 65.6066 59.3633 65.9466 58.6747 66.4106C57.9873 66.8976 57.5073 67.6326 57.2828 68.4746C57.1813 68.9026 57.1323 69.3486 57.1847 69.8036L57.2372 70.2566Z" fill="black"/>
  <path class="coffeePath" d="M59.0942 69.3176C59.1649 68.7056 59.4203 68.0846 59.8478 67.5636C60.0552 67.2986 60.3117 67.0636 60.5922 66.8606C60.7335 66.7586 60.8863 66.6706 61.0402 66.5936C61.1177 66.5626 61.1975 66.5216 61.2728 66.5026C61.3024 66.4916 61.3286 66.4866 61.3526 66.4826C61.348 66.4906 61.3503 66.4956 61.3446 66.5036C61.3024 66.5696 61.2112 66.8276 61.1496 66.9076C61.3218 67.9176 62.3637 69.0576 62.5758 69.8316L62.6225 70.1336C62.6316 70.0796 62.6225 70.1956 62.6294 70.2186C62.6544 70.3146 62.6225 70.4006 62.6123 70.4946C62.5667 70.6776 62.4766 70.8666 62.3147 71.0166C62.1779 71.2026 61.9226 71.2776 61.8542 71.3806C61.7721 71.4056 61.6353 71.4236 61.5293 71.4446L61.3594 71.4766L61.3172 71.4856L61.3058 71.4876L61.3013 71.4886L61.2978 71.4896C61.3241 71.4886 61.3298 71.4876 61.3469 71.4876C61.218 71.4936 61.0767 71.5286 60.9422 71.5026C60.4736 71.4816 59.9469 71.2866 59.5742 70.8986C59.4556 70.8016 59.4282 70.7166 59.3393 70.6176C59.2458 70.5456 59.2242 70.3216 59.1649 70.1806C59.0794 69.9566 59.068 69.6116 59.0942 69.3176Z" fill="black"/>
  <path class="coffeePath" d="M30.0071 27.5446C31.4036 28.3396 32.4341 29.6526 32.7681 31.1696C32.8924 31.6746 33.9275 31.9546 34.0404 31.2296C34.3812 29.5266 33.5388 27.6006 31.9473 26.3766C31.5483 26.0686 31.1414 25.7676 30.6546 25.5696L29.9455 25.2486C29.705 25.1456 29.3949 25.0856 29.119 25.0116C28.834 24.9426 28.549 24.8806 28.2651 24.8236C28.0007 24.7796 27.8319 24.7916 27.6108 24.7736L26.9849 24.7426L26.9063 24.7386L26.8869 24.7376L26.7193 24.7306L26.7125 24.7316L26.7011 24.7326L26.652 24.7376L26.4571 24.7576L26.0672 24.8016C23.7986 25.0206 21.6999 26.1496 20.4687 27.7756C20.1597 28.1786 19.9443 28.6366 19.698 29.0656C19.5384 29.5576 19.3492 30.1146 19.2865 30.5566L19.2546 31.1566L19.2398 31.4566L19.2352 31.5326L19.2295 31.6766L19.2363 31.7206L19.2648 31.8976C19.3686 32.3646 19.3674 32.8446 19.5863 33.2796C20.1267 34.7696 21.2997 36.0076 22.7453 36.7176C23.1089 36.8886 23.4965 37.0196 23.8647 37.1656C24.2375 37.3046 24.6776 37.3496 25.0709 37.4366C25.4847 37.5436 25.8278 37.4866 26.2052 37.5126C26.4081 37.5116 26.5335 37.5326 26.8002 37.5136L27.3782 37.4306C30.4471 37.0156 32.9802 34.8196 33.5069 31.9986C33.5878 31.7026 33.0463 31.5676 32.8559 31.7906C32.645 32.0376 32.4524 32.2926 32.2757 32.5566C32.1104 32.8376 31.847 32.9826 31.6817 33.1766L31.4241 33.4396L31.106 33.7016C30.9008 33.8726 30.7469 34.0646 30.5075 34.1996C29.697 34.8186 28.8135 35.3566 27.7567 35.6196C26.7695 35.9076 25.3456 35.8906 24.3971 35.5926C23.2959 35.2596 22.2585 34.5626 21.7706 33.6616C21.5733 33.3616 21.4924 33.0166 21.3396 32.6926C21.2895 32.5246 21.2838 32.3486 21.2519 32.1756L21.212 31.9146L21.1914 31.7826L21.1812 31.7176L21.1766 31.6846L21.1755 31.6766C21.2165 31.2976 21.2268 30.8866 21.3032 30.5416C21.4445 30.2306 21.4776 29.9076 21.6748 29.5946C22.3508 28.3026 23.7051 27.2986 25.2761 26.9196C25.6557 26.7706 26.0798 26.8086 26.481 26.7426C26.5563 26.7366 26.7432 26.7106 26.7284 26.7186L27.0704 26.7436L27.7533 26.7926C28.1876 26.8436 28.508 26.9796 28.9024 27.0536C29.2672 27.2096 29.6514 27.3606 30.0071 27.5446Z" fill="black"/>
  <path class="coffeePath" d="" fill="black"/>
  <path class="coffeePath" d="M21.1698 31.7296V31.7276C21.1698 31.7466 21.1698 31.7366 21.1698 31.7296Z" fill="black"/>
  <path class="coffeePath" d="M67.4652 31.1696C67.5883 31.6746 68.6257 31.9546 68.7374 31.2296C69.0783 29.5266 68.237 27.6006 66.6444 26.3766C66.2454 26.0686 65.8396 25.7676 65.3516 25.5696L64.6426 25.2476C64.402 25.1456 64.0919 25.0856 63.8161 25.0116C63.5311 24.9426 63.2461 24.8806 62.9622 24.8236C62.6989 24.7796 62.529 24.7916 62.3078 24.7736L61.6808 24.7416L61.6033 24.7376H61.5839L61.4175 24.7306H61.4107L61.3981 24.7316L61.3491 24.7366L61.1542 24.7566L60.7643 24.7996C58.4968 25.0186 56.3981 26.1476 55.1657 27.7736C54.8568 28.1766 54.6425 28.6346 54.3962 29.0646C54.2366 29.5566 54.0474 30.1136 53.9847 30.5556L53.9528 31.1556L53.938 31.4556L53.9345 31.5306L53.9288 31.6746L53.9357 31.7186L53.9642 31.8956C54.0679 32.3626 54.0668 32.8426 54.2857 33.2776C54.826 34.7676 55.9991 36.0056 57.4446 36.7156C57.8094 36.8856 58.197 37.0166 58.5641 37.1616C58.9357 37.3016 59.378 37.3466 59.7702 37.4326C60.184 37.5396 60.5272 37.4836 60.9045 37.5096C61.1074 37.5086 61.2328 37.5296 61.4996 37.5106L62.0776 37.4276C65.1464 37.0126 67.6795 34.8166 68.2062 31.9956C68.2871 31.6996 67.7456 31.5646 67.5564 31.7876C67.3444 32.0346 67.1528 32.2896 66.975 32.5536C66.8097 32.8346 66.5464 32.9796 66.3811 33.1736L66.1246 33.4366L65.8054 33.6986C65.6002 33.8696 65.4474 34.0616 65.208 34.1966C64.3975 34.8156 63.5151 35.3536 62.4572 35.6166C61.4699 35.9046 60.0461 35.8876 59.0976 35.5886C57.9964 35.2566 56.959 34.5596 56.4699 33.6576C56.2738 33.3586 56.1929 33.0126 56.0401 32.6896C55.99 32.5216 55.9843 32.3446 55.9523 32.1716L55.9124 31.9106L55.8919 31.7796L55.8817 31.7146L55.876 31.6816L55.8725 31.6766C55.9136 31.2976 55.925 30.8856 56.0002 30.5406C56.1404 30.2296 56.1746 29.9066 56.3707 29.5936C57.0467 28.3016 58.4011 27.2976 59.972 26.9186C60.3516 26.7696 60.7757 26.8076 61.177 26.7416C61.2522 26.7356 61.4392 26.7096 61.4243 26.7176L61.7663 26.7436L62.4503 26.7926C62.8858 26.8426 63.205 26.9796 63.6006 27.0526C63.9643 27.2096 64.3484 27.3606 64.7053 27.5446C66.1006 28.3396 67.1312 29.6526 67.4652 31.1696Z" fill="black"/>
  <path class="coffeePath" d="M55.868 31.7296V31.7276C55.8668 31.7466 55.8668 31.7366 55.868 31.7296Z" fill="black"/>
  <path class="coffeePath" d="M62.5826 29.3286C62.4116 29.5866 62.2018 29.7976 62.0913 30.1366C61.9077 30.7006 62.0354 31.6336 61.1576 31.2756C61.1074 31.2546 61.4061 31.6656 61.5144 31.7746C63.4547 33.7106 62.8323 31.9656 63.0751 31.5936C63.4137 31.0746 64.1398 31.0566 64.2504 30.2376C64.2607 30.1656 63.7192 29.4186 63.5676 29.3086C62.8539 28.7946 62.7399 29.0916 62.5826 29.3286Z" fill="black"/>
  <path class="coffeePath" d="M26.2029 31.6416C26.1562 31.6696 26.7113 31.6776 26.8744 31.6556C29.7848 31.2686 27.7818 30.7166 27.5618 30.2986C27.2551 29.7146 27.637 29.1236 26.92 28.5416C26.8573 28.4906 25.8484 28.4726 25.6603 28.5286C24.779 28.7906 24.9968 29.0616 25.1359 29.3296C25.2863 29.6226 25.373 29.9166 25.634 30.2086C26.0695 30.6946 27.0271 31.1546 26.2029 31.6416Z" fill="black"/>
</svg>
