<svg width="125" height="136" viewBox="0 0 125 136" fill="none" xmlns="http://www.w3.org/2000/svg">
  <path class="harvestPath" d="M110.924 37.188C111.235 36.0357 112.003 34.9068 112.815 33.7114C114.2 31.6723 115.767 29.3676 115.767 26.1216C115.767 23.4888 114.178 21.9146 112.642 20.3872L111.976 19.7232C110.4 18.1294 108.674 16.0748 108.123 11.8794C108.052 11.3325 107.657 10.8599 107.084 10.6333C106.516 10.4067 105.85 10.4653 105.335 10.7817C101.092 13.4145 97.8247 13.8481 94.9395 14.227C92.1829 14.5942 89.5817 14.938 86.9938 16.9692C84.9918 18.5395 84.3215 20.5317 83.7312 22.2895C83.305 23.559 82.9055 24.7583 82.0621 25.8364C80.8857 27.3325 79.3942 27.8052 77.672 28.352C75.8121 28.9419 73.7036 29.6098 72.0833 31.6137C69.7263 34.5199 69.8239 37.1528 69.9038 39.2621C69.9615 40.7543 70.0059 41.9379 69.2513 43.0043C68.6653 43.8285 67.8086 44.1645 66.4636 44.6449C65.1852 45.098 63.6582 45.6527 62.5041 46.9457C61.3456 45.6488 59.823 45.1019 58.5446 44.6449C57.1951 44.1644 56.3384 43.8324 55.7569 43.0121C55.0023 41.9379 55.0467 40.7543 55.1 39.2621C55.1799 37.1488 55.2775 34.5199 52.9204 31.6137C51.2958 29.6098 49.1918 28.9418 47.3274 28.352C45.6051 27.8051 44.1136 27.3325 42.9417 25.8403C42.0939 24.7544 41.6943 23.5551 41.2682 22.2856C40.6778 20.5278 40.0075 18.5317 38.01 16.9653C35.4221 14.9341 32.8165 14.5903 30.0643 14.2231C27.179 13.8403 23.9163 13.4106 19.6684 10.7778C19.1535 10.4575 18.4876 10.4028 17.9194 10.6294C17.3468 10.8559 16.9517 11.3286 16.8807 11.8755C16.3258 16.0708 14.5991 18.1216 13.0189 19.7232L12.3619 20.3833C10.826 21.9106 9.23694 23.4849 9.23694 26.1177C9.23694 29.3599 10.8039 31.6724 12.1889 33.7075C13.0012 34.9028 13.7691 36.0278 14.0799 37.188C14.5682 38.9575 13.9734 40.2505 13.2853 41.7466C12.544 43.356 11.7051 45.1802 12.3176 47.5747C13.2143 51.0513 15.5004 52.7427 17.3381 54.102C18.6387 55.063 19.6686 55.8247 20.068 57.0434C20.5962 58.6254 20.2589 60.5668 19.9037 62.6254C19.4643 65.1606 19.0071 67.7816 19.9792 70.3598C22.4739 76.9809 26.7086 80.6018 26.9927 80.8048C27.1836 80.9416 29.1767 82.4728 30.9078 83.7501C32.204 89.0939 36.9448 93.3126 42.9908 94.5161C43.1817 86.313 49.9333 79.5281 58.8067 78.0241C59.0508 76.7897 59.4814 75.2429 60.236 73.6257C57.4484 69.5124 52.3614 66.7507 46.5247 66.7507C38.4591 66.7507 31.8053 72.0163 30.7178 78.8527C28.9113 77.3527 25.0006 73.7511 23.3536 69.3839C22.6479 67.5167 23.0207 65.3761 23.4158 63.1027C23.8153 60.798 24.2281 58.4152 23.4824 56.173C22.7855 54.048 21.1076 52.8058 19.6294 51.7121C17.9782 50.4933 16.4201 49.3371 15.7853 46.8879C15.4169 45.4504 15.9318 44.3371 16.5799 42.927C17.3434 41.2668 18.2933 39.2043 17.5387 36.4622C17.0992 34.8411 16.1537 33.4505 15.2394 32.1106C13.9787 30.2551 12.7892 28.5051 12.7892 26.1262C12.7892 24.7434 13.5127 23.9621 15.0219 22.466L15.7099 21.7746C17.4056 20.0598 19.0524 17.9973 19.9447 14.6418C23.7932 16.5637 26.9315 16.9816 29.5372 17.3293C32.0407 17.6614 33.8518 17.8996 35.6496 19.3137C36.8925 20.2903 37.3453 21.6301 37.8646 23.1887C38.3262 24.5715 38.85 26.134 40.0218 27.634C41.8463 29.9543 44.221 30.7082 46.1298 31.3137C47.7633 31.8333 49.055 32.2434 50.036 33.4504C51.6962 35.4973 51.6251 37.2863 51.5586 39.1809C51.4964 40.8762 51.4254 42.7981 52.7438 44.6809C53.9689 46.4114 55.7712 47.052 57.2182 47.5637C59.2646 48.2903 60.6273 49.2239 60.716 52.7942C53.92 53.4661 48.4161 57.8801 46.9331 63.6492C53.3296 63.7625 59.0251 66.5476 62.5047 70.9383C65.9848 66.5516 71.6843 63.7664 78.0854 63.6492C76.6028 57.8836 71.0985 53.4652 64.3024 52.7942C64.3912 49.2239 65.7539 48.2903 67.8003 47.5637C69.2473 47.0481 71.0496 46.4114 72.2747 44.6731C73.5931 42.7981 73.5221 40.8723 73.4599 39.177C73.3889 37.2825 73.3223 35.4934 74.9824 33.4426C75.959 32.2356 77.2507 31.8254 78.8887 31.3059C80.7974 30.7005 83.1722 29.9465 84.9966 27.6223C86.1596 26.1301 86.6834 24.5676 87.1495 23.1848C87.6688 21.6301 88.1216 20.2864 89.3689 19.3098C91.1666 17.8996 92.9778 17.6575 95.4813 17.3254C98.087 16.9778 101.225 16.5637 105.074 14.6379C105.962 17.9973 107.613 20.0559 109.304 21.7668L109.997 22.4621C111.506 23.9582 112.229 24.7394 112.229 26.1223C112.229 28.5051 111.04 30.2551 109.779 32.1067C108.865 33.4505 107.924 34.8411 107.484 36.4544C106.725 39.2005 107.675 41.263 108.439 42.9232C109.087 44.3334 109.602 45.4505 109.238 46.8841C108.603 49.3372 107.045 50.4935 105.393 51.7122C103.915 52.806 102.237 54.0481 101.541 56.1653C100.79 58.4153 101.203 60.7981 101.603 63.0989C101.998 65.3684 102.371 67.513 101.665 69.3801C100.018 73.7473 96.1073 77.3489 94.3006 78.8489C93.2131 72.013 86.5591 66.7469 78.4938 66.7469C70.8855 66.7469 64.529 71.4344 62.9177 77.7039C73.3624 77.8914 81.8097 85.325 82.0222 94.5159C87.8283 93.3597 92.4359 89.4339 93.9449 84.3949C95.4586 83.1254 97.7935 80.9769 98.0243 80.809C98.3083 80.6059 102.539 76.9848 105.038 70.364C106.01 67.7859 105.557 65.1609 105.113 62.6296C104.758 60.5749 104.421 58.6296 104.949 57.0398C105.348 55.8289 106.374 55.0671 107.674 54.1062C109.512 52.7468 111.798 51.0554 112.699 47.575C113.312 45.1844 112.473 43.3641 111.732 41.7508C111.044 40.2547 110.449 38.9617 110.937 37.1883L110.924 37.188Z" fill="darkred"  stroke-width="4px"/>

  <path class="harvestPath" d="M40.3046 87.059C38.8353 87.059 37.6412 86.0082 37.6412 84.7152C37.6412 83.4222 38.8353 82.3714 40.3046 82.3714C41.7739 82.3714 42.968 83.4222 42.968 84.7152C42.968 86.0082 41.7739 87.059 40.3046 87.059Z" fill="black"  stroke-width="1px"/>

  <path class="harvestPath" d="M36.7534 77.059C38.1429 74.2621 40.9971 72.2309 44.3884 71.6215C45.365 71.4536 46.2883 71.9965 46.4837 72.8403C46.679 73.6841 46.0575 74.5122 45.0987 74.6841C42.8392 75.0904 40.9349 76.4419 40.0072 78.3091C39.7142 78.8951 38.7998 79.5279 37.6723 79.1138C36.7756 78.7701 36.3629 77.8482 36.7579 77.0552L36.7534 77.059Z" fill="black" stroke-width="1px"/>

  <path class="harvestPath" d="M84.6943 87.059C83.225 87.059 82.0309 86.0082 82.0309 84.7152C82.0309 83.4222 83.225 82.3714 84.6943 82.3714C86.1637 82.3714 87.3578 83.4222 87.3578 84.7152C87.3578 86.0082 86.1637 87.059 84.6943 87.059Z" fill="black" stroke-width="1px"/>

  <path class="harvestPath" d="M87.3311 79.1176C86.2036 79.5278 85.2847 78.8989 84.9962 78.3129C84.0684 76.4457 82.1641 75.0902 79.9047 74.6879C78.9459 74.5161 78.3245 73.6918 78.5197 72.8441C78.715 72.0004 79.6383 71.4535 80.6149 71.6253C84.0063 72.2308 86.8649 74.2659 88.2499 77.0628C88.645 77.8519 88.2322 78.7737 87.3355 79.1214L87.3311 79.1176Z" fill="black" stroke-width="1px"/>

  <path class="harvestPath" d="M28.7864 54.008C28.6354 54.8596 29.3013 55.6603 30.269 55.7932L39.6484 57.0744L43.2217 63.8908C43.2217 63.8908 43.5235 61.9299 44.7576 59.465L42.4937 55.0197C42.4849 54.9963 42.4582 54.9846 42.4494 54.9651L37.8729 45.9885L42.7646 37.7932C43.2218 37.0314 42.8889 36.0862 42.0188 35.6838C41.1488 35.2814 40.0791 35.5783 39.6218 36.34L36.0262 42.3634L25.8344 22.3674C25.4305 21.5784 24.3785 21.2268 23.4907 21.5822C22.594 21.9338 22.1945 22.8595 22.594 23.6447L26.993 32.2775L23.2509 31.3713C22.301 31.1408 21.3289 31.6291 21.067 32.4651C20.8095 33.2971 21.3644 34.1565 22.3099 34.387L28.875 35.9729L37.8993 53.6759L30.8148 52.7072C29.8427 52.5782 28.9372 53.1564 28.7862 54.0118L28.7864 54.008Z" fill="black" stroke-width="4px"/>

  <path class="harvestPath" d="M82.5057 55.016L80.2418 59.4613C81.4758 61.9261 81.7777 63.8871 81.7777 63.8871L85.351 57.0707L94.7305 55.7895C95.6981 55.6567 96.364 54.8598 96.2131 54.0043C96.0622 53.1489 95.1522 52.5668 94.1844 52.6996L87.0999 53.6684L96.1198 35.9654L102.685 34.3795C103.63 34.1529 104.185 33.2936 103.928 32.4576C103.67 31.6256 102.694 31.1334 101.744 31.3638L98.0018 32.27L102.401 23.6372C102.8 22.8482 102.401 21.9263 101.504 21.5747C100.607 21.2232 99.5599 21.5747 99.1604 22.3599L88.9686 42.3559L85.373 36.3325C84.9158 35.5669 83.846 35.2739 82.976 35.6762C82.1059 36.0786 81.773 37.02 82.2302 37.7856L87.1219 45.9809L82.5454 54.9575C82.5321 54.981 82.5099 54.9927 82.5011 55.0122L82.5057 55.016Z" fill="black" stroke-width="4px"/>

  <path class="harvestPath" d="M62.5 80.812C53.6754 80.812 46.5204 87.1089 46.5204 94.874C46.5204 102.639 53.676 108.936 62.5 108.936C71.324 108.936 78.4795 102.639 78.4795 94.874C78.4795 87.1089 71.324 80.812 62.5 80.812Z" fill="darkred" stroke-width="4px"/>

  <path class="harvestPath" d="M62.5 104.25C60.5379 104.25 58.9489 102.852 58.9489 101.125C58.9489 99.3984 60.5379 98 62.5 98C64.462 98 66.0511 99.3984 66.0511 101.125C66.0511 102.852 64.462 104.25 62.5 104.25Z" fill="black" stroke-width="1px"/>
</svg>
