<svg width="129" height="10" viewBox="0 0 129 10" fill="none" xmlns="http://www.w3.org/2000/svg">
<path id="underline" stroke="var(--clr-dark-brown)" stroke-width="2" fill="none" d="M1 1.5C0.877022 1.50941 0.759082 1.57033 0.672123 1.66394C0.585165 1.75787 0.536313 1.8768 0.536313 2C0.536313 2.1232 0.585165 2.24213 0.672123 2.33606C0.759082 2.42967 0.877022 2.49059 1 2.5C1 2.5 1 2.5 1 2.5C3.11408 2.66025 5.22076 2.8903 7.32163 3.1632C14.6216 4.11129 21.8432 5.57655 29.2486 6.49762C30.4838 6.65079 31.7085 6.79465 32.9232 6.92757C44.3474 8.17154 55.8303 9.39817 67.3624 9.75234C85.5729 10.2707 104.172 9.28858 121.953 4.38893C124.016 3.81391 126.084 3.17882 128.106 2.48857C128.226 2.44775 128.331 2.36878 128.398 2.25976C128.465 2.15082 128.488 2.02202 128.461 1.89964C128.435 1.77727 128.36 1.66962 128.254 1.59831C128.148 1.52693 128.019 1.49901 127.894 1.51143C127.894 1.51143 127.894 1.51143 127.894 1.51143C125.783 1.72053 123.654 1.89518 121.549 2.03311C103.495 3.17584 85.6351 2.26004 67.6059 1.75605C56.2262 1.40676 44.7594 1.3293 33.3053 1.08275C32.0876 1.05668 30.8582 1.03762 29.6171 1.0241C22.3061 0.951503 14.8507 0.847744 7.41182 1.13917C5.27081 1.22308 3.13184 1.33978 1 1.5Z"/>
</svg>
