<svg width="125" height="136" viewBox="0 0 125 136" fill="none" xmlns="http://www.w3.org/2000/svg">
  <path class="shippingPath" fill-rule="evenodd" clip-rule="evenodd" d="M69.3136 78.1289L48.3795 67.4919V47.7689L61.2966 54.3314C61.2966 59.1986 63.4938 63.6244 67.7906 67.1364V71.2809C67.7906 72.0192 68.4698 72.6207 69.3131 72.6207C70.1521 72.6207 70.8356 72.0192 70.8356 71.2809V67.1364C75.1325 63.6247 77.3297 59.1989 77.3297 54.3314L90.2468 47.7689V67.4959L69.3136 78.1289Z" fill="black" stroke-width="4px"/>

  <path class="shippingPath" fill-rule="evenodd" clip-rule="evenodd" d="M69.3136 54.0979C70.1525 54.0979 70.8361 54.6995 70.8361 55.4377V63.176C75.9763 57.3244 75.315 49.574 69.3136 44.266C63.3122 49.5746 62.6552 57.328 67.7911 63.176V55.4377C67.7911 54.6995 68.4703 54.0979 69.3136 54.0979Z" fill="black" stroke-width="2px"/>

  <path class="shippingPath" fill-rule="evenodd" clip-rule="evenodd" d="M69.3136 35.5859L49.9022 45.4492L61.6204 51.4062C62.4372 47.6367 64.741 44.1718 68.3098 41.4257C68.8825 40.9843 69.7392 40.9843 70.3118 41.4257C73.8806 44.1679 76.1845 47.6366 77.0012 51.4062L88.7239 45.4492L69.3136 35.5859Z" fill="black" stroke-width="4px"/>

  <path class="shippingPath" fill-rule="evenodd" clip-rule="evenodd" d="M70.0727 32.8789C69.6021 32.6407 69.0206 32.6407 68.5502 32.8789L46.0979 44.2889C45.6274 44.5272 45.3388 44.9686 45.3388 45.4491V68.2691C45.3388 68.7496 45.6274 69.1871 46.0979 69.4293L68.5502 80.8393C69.0251 81.0815 69.6022 81.0776 70.0727 80.8393L92.5295 69.4293C93 69.1911 93.293 68.7497 93.293 68.2691V45.4491C93.293 44.9687 93.0044 44.5312 92.5295 44.2889L70.0727 32.8789Z" fill="black" stroke-width="4px"/>

  <path class="shippingPath" fill-rule="evenodd" clip-rule="evenodd" d="M73.1711 20.1799C76.3005 20.1799 79.3856 20.4417 82.3996 20.9651C77.7831 19.6604 72.9136 18.9768 67.9291 18.9768C41.9087 18.9768 20.7439 37.6058 20.7439 60.4998C20.7439 83.3938 41.9087 102.023 67.9291 102.023C81.2632 102.023 94.0348 97.0228 102.975 88.2998C104.182 87.1162 102.406 85.1436 100.831 86.1006C94.5096 89.9444 87.034 92.3858 78.6136 93.3545C77.1621 93.5225 76.3054 91.9404 77.3706 91.0537L83.6561 85.8115C84.2642 85.3076 84.3086 84.4756 83.7582 83.9209L83.5717 83.7334C83.0391 83.1982 82.1424 83.1045 81.4855 83.5225L66.9173 92.7725C66.611 92.9678 66.2293 93.0537 65.852 93.0147C52.8326 91.6788 42.3474 87.2529 35.5292 80.2136C29.4834 73.9714 26.4693 65.7607 27.042 57.0887C27.659 47.7215 32.4352 38.4797 40.1499 31.7297C46.1691 26.4602 56.7874 20.1787 73.1715 20.1787L73.1711 20.1799Z" fill="black" stroke-width="4px"/>

  <path class="shippingPath" fill-rule="evenodd" clip-rule="evenodd" d="M106.969 32.6959C88.1608 12.2619 53.4802 10.6999 32.4086 29.2428C12.7802 46.5158 12.7802 74.4808 32.4086 91.7548C52.8631 109.755 86.0529 108.806 105.234 90.0947C106.592 88.7705 106.809 86.8485 105.771 85.3173C105.065 84.2587 104.071 83.5361 102.695 83.2704C101.456 83.0322 100.147 83.2626 99.099 83.8994C94.4336 86.7353 89.0803 88.7588 83.1365 89.9346L85.7466 87.7588C87.5399 86.2627 87.6731 83.8057 86.0529 82.165L85.8709 81.9775C84.2995 80.3877 81.6495 80.1181 79.7096 81.3525L65.621 90.2978C37.9971 87.247 29.1994 70.6298 30.0835 57.2508C31.1843 40.5828 46.6585 22.8638 73.1721 22.8638C85.188 22.8638 96.388 26.9888 104.702 34.4808C105.27 34.9925 106.198 35.0198 106.801 34.5433C107.409 34.0628 107.485 33.2542 106.97 32.6956L106.969 32.6959Z" fill="black" stroke-width="4px"/>
</svg>
